<?xml version="1.0" encoding="utf-8"?>
<!-- Svg Vector Icons : http://www.onlinewebfonts.com/icon -->
<!DOCTYPE svg PUBLIC "-//W3C//DTD SVG 1.1//EN" "http://www.w3.org/Graphics/SVG/1.1/DTD/svg11.dtd">
<svg version="1.1" xmlns="http://www.w3.org/2000/svg" xmlns:xlink="http://www.w3.org/1999/xlink" x="0px" y="0px" viewBox="0 0 1000 1000" enable-background="new 0 0 1000 1000" xml:space="preserve">
<metadata> Svg Vector Icons : http://www.onlinewebfonts.com/icon </metadata>
<g><g><g><path d="M52.4,457.6C29,457.6,10,476.7,10,500c0,23.4,19,42.4,42.4,42.4h178.5v-84.8H52.4z"/><path d="M848.7,120.5H372.2c-77.9,0-141.3,63.4-141.3,141.3v4.4v191.5h381.9l-81.7-81.7c-16.5-16.5-16.5-43.4,0-60c8-8,18.6-12.4,29.9-12.4c11.4,0,22,4.4,30,12.4l154,154c3.9,3.9,6.9,8.4,9.1,13.6c2.3,5.6,3.3,10.9,3.3,16.4c0,5.5-1,10.8-3.1,16c-2.3,5.4-5.3,10-9.2,13.9L591,684c-8,8-18.7,12.4-30,12.4c-11.3,0-22-4.4-30-12.4c-16.5-16.6-16.5-43.5,0-60l81.7-81.7H230.9v46.4v85.1v64.4c0,77.9,63.4,141.2,141.3,141.2h476.5c77.9,0,141.3-63.4,141.3-141.2V261.7C990,183.8,926.7,120.5,848.7,120.5z"/></g></g><g></g><g></g><g></g><g></g><g></g><g></g><g></g><g></g><g></g><g></g><g></g><g></g><g></g><g></g><g></g></g>
</svg>